/* XPM */
static char *bitcoin16[] = {
/* columns rows colors chars-per-pixel */
"16 16 107 2 ",
"   c #221B3B",
".  c #241E41",
"X  c #251E41",
"o  c #2C224D",
"O  c #2C244F",
"+  c #332A4D",
"@  c #2D2451",
"#  c #2E2754",
"$  c #372E53",
"%  c #322959",
"&  c #3B2B5C",
"*  c #3F3554",
"=  c #3F3953",
"-  c #3E3854",
";  c #3D335A",
":  c #3A315F",
">  c #3B315F",
",  c #3D315D",
"<  c #392F60",
"1  c #382D63",
"2  c #382E62",
"3  c #382E63",
"4  c #3B2F62",
"5  c #382D64",
"6  c #382E64",
"7  c #382E65",
"8  c #392E66",
"9  c #3A2E67",
"0  c #3B3061",
"q  c #3C3160",
"w  c #3D3261",
"e  c #433A4E",
"r  c #413D4D",
"t  c #423D4C",
"y  c #423E4D",
"u  c #433E4D",
"i  c #443E4D",
"p  c #453E4D",
"a  c #483E4E",
"s  c #4D3E4F",
"d  c #492E53",
"f  c #433E50",
"g  c #443F53",
"h  c #453F56",
"j  c #4E3B52",
"k  c #4F3F50",
"l  c #403459",
"z  c #49315B",
"x  c #433B59",
"c  c #433B5A",
"v  c #4B3B58",
"b  c #503F50",
"n  c #533F51",
"m  c #593E51",
"M  c #583F52",
"N  c #593F54",
"B  c #772D42",
"V  c #782C43",
"C  c #792E45",
"Z  c #6C3C53",
"A  c #6E3E56",
"S  c #47347F",
"D  c #603669",
"F  c #7A3B6B",
"G  c #793B6D",
"H  c #48405B",
"J  c #574355",
"K  c #5C4053",
"L  c #5A4355",
"P  c #72445B",
"I  c #74465B",
"U  c #7C405B",
"Y  c #79455C",
"T  c #79485C",
"R  c #524375",
"E  c #7A436F",
"W  c #84304A",
"Q  c #993854",
"!  c #993955",
"~  c #9A3A56",
"^  c #A33E5C",
"/  c #82336A",
"(  c #873D6C",
")  c #C63E69",
"_  c #8A4661",
"`  c #8C4563",
"'  c #974162",
"]  c #974262",
"[  c #9F4667",
"{  c #994B64",
"}  c #914576",
"|  c #A14164",
" . c #AD4166",
".. c #AC4469",
"X. c #AC496A",
"o. c #B54566",
"O. c #B34A6C",
"+. c #B4496E",
"@. c #C64A6F",
"#. c #C34B70",
"$. c #CF4B73",
"%. c #C94D76",
"&. c #D14D73",
"*. c #D44D75",
"=. c #D44E75",
"-. c #574582",
";. c None",
/* pixels */
";.;.;.;.;.;.;.;.;.;.;.;.;.;.;.;.",
";.;.;.;.;.;.. # % @   ;.;.;.;.;.",
";.;.;.;.o 9 9 0 > 4 8 7 X ;.;.;.",
";.;.;.& 9 ; e s k b j , 7 O ;.;.",
";.;.~ G * t s K K M k t l D C ;.",
";.;.=.X.t y n ..%.] p y i +.$.;.",
";.B =.Y y y '  .) | U y y { *.;.",
";.Q =.L y y } i A N E y y T *.V ",
";.! =.J y y -.m Z H R y y I *.C ",
";.C =.P y y h v / g f y y _ *.;.",
";.;.=.O.u y y c S y y y a #.&.;.",
";.;.^ =.` r y y x y y r [ *.W ;.",
";.;.;.@.F : = r y r - < ( o.;.;.",
";.;.;.;.z 6 6 3 2 1 5 5 d ;.;.;.",
";.;.;.;.;.;.$ w 4 q + ;.;.;.;.;.",
";.;.;.;.;.;.;.;.;.;.;.;.;.;.;.;."
};
