/* XPM */
static char *bitcoin32[] = {
/* columns rows colors chars-per-pixel */
"32 32 113 2 ",
"   c #31293E",
".  c #241D40",
"X  c #262043",
"o  c #2B234C",
"O  c #382E46",
"+  c #362D4C",
"@  c #2E2652",
"#  c #352650",
"$  c #342A5C",
"%  c #3D3456",
"&  c #3F3953",
"*  c #3C325C",
"=  c #372D63",
"-  c #3A2F65",
";  c #3B3062",
":  c #462C4A",
">  c #423D4D",
",  c #4A3E4F",
"<  c #423553",
"1  c #433C53",
"2  c #4D3E50",
"3  c #41355D",
"4  c #443C59",
"5  c #493B58",
"6  c #553E51",
"7  c #5C3E54",
"8  c #55395D",
"9  c #772D42",
"0  c #653E55",
"q  c #6C3D56",
"w  c #6E3F58",
"e  c #7E3354",
"r  c #713E57",
"t  c #7E3F5A",
"y  c #4C3462",
"u  c #443963",
"i  c #44366D",
"p  c #5D3763",
"a  c #5B356A",
"s  c #453773",
"d  c #4F3672",
"f  c #47347F",
"g  c #51347C",
"h  c #6F3666",
"j  c #6C396A",
"k  c #7C336C",
"l  c #49405D",
"z  c #564053",
"x  c #5D4053",
"c  c #53405A",
"v  c #5B405D",
"b  c #634154",
"n  c #6C4157",
"m  c #62465A",
"M  c #6B4359",
"N  c #73435B",
"B  c #7C415C",
"V  c #7D485F",
"C  c #4B4166",
"Z  c #4E416D",
"A  c #574574",
"S  c #60426C",
"D  c #7C4162",
"F  c #714268",
"G  c #84324A",
"H  c #88334C",
"J  c #893A56",
"K  c #84395B",
"L  c #953953",
"P  c #9B3957",
"I  c #98375D",
"U  c #9C3D59",
"Y  c #A23C5A",
"T  c #803D6A",
"R  c #8C3F6E",
"E  c #9C3E60",
"W  c #AD3D62",
"Q  c #C83F6A",
"!  c #82425E",
"~  c #8D405F",
"^  c #86495C",
"/  c #A9415F",
"(  c #8A4561",
")  c #904160",
"_  c #9C4363",
"`  c #944B64",
"'  c #9D4D66",
"]  c #914474",
"[  c #A54265",
"{  c #AD4166",
"}  c #A1426F",
"|  c #A34A68",
" . c #AE486C",
".. c #B34265",
"X. c #B94467",
"o. c #B44168",
"O. c #BA4068",
"+. c #B34C6C",
"@. c #BD4C6F",
"#. c #A74470",
"$. c #AE4670",
"%. c #BC4972",
"&. c #C3426B",
"*. c #C84A6F",
"=. c #D0416E",
"-. c #C44C72",
";. c #CC4C72",
":. c #D14572",
">. c #D34D75",
",. c #574581",
"<. c #684785",
"1. c #684988",
"2. c None",
/* pixels */
"2.2.2.2.2.2.2.2.2.2.2.2.2.2.2.2.2.2.2.2.2.2.2.2.2.2.2.2.2.2.2.2.",
"2.2.2.2.2.2.2.2.2.2.2.2.2.2.2.2.2.2.2.2.2.2.2.2.2.2.2.2.2.2.2.2.",
"2.2.2.2.2.2.2.2.2.2.2.2.2.2.X @ @ o . 2.2.2.2.2.2.2.2.2.2.2.2.2.",
"2.2.2.2.2.2.2.2.2.2.2.= - - - - - - - - - @ 2.2.2.2.2.2.2.2.2.2.",
"2.2.2.2.2.2.2.2.2.$ - - - - - - - - - - - - - @ 2.2.2.2.2.2.2.2.",
"2.2.2.2.2.2.2.o - - - - ; * * < % * * * - - - - $ 2.2.2.2.2.2.2.",
"2.2.2.2.2.2.# - - - - % 1 > > > , , > , < * - - - - 2.2.2.2.2.2.",
"2.2.2.2.2.e a - - % < > , 7 x 6 x N b b 6 > < * - - - 2.2.2.2.2.",
"2.2.2.2.2.-.R ; * < > > 6 0 b b b n x z z > > O * - j W 2.2.2.2.",
"2.2.2.2.X.>.%.p > > > > > > z M N n z > > > > > < y #.>.P 2.2.2.",
"2.2.2.2.>.>.-.B > > > > , w | %.-. .! 6 > > > > , ( -.>.-.2.2.2.",
"2.2.2...>.>.+.x > > > > w ..=.:.:.:.X.^ z > > > > ^ -.>.>.G 2.2.",
"2.2.2.>.>.;.' > > > > 6 ) ..o.&.&.O.{ { b z > > > z @.>.>.{ 2.2.",
"2.2.2.>.>.;.V > > > > b _ ! n E W ! n [ N z > > > z +.>.>.:.2.2.",
"2.2.2.>.>.-.m > > > > v ] D > q r 2 7 ] F l > > > > ' >.>.>.2.2.",
"2.2.9 >.>.-.m > > > > C <.S > , , > c <.A > > > > > ` >.>.>.2.2.",
"2.2.2.>.>.-.m > > > > l ,.Z 6 0 r 7 5 ,.C 1 > > > > ' ;.>.>.2.2.",
"2.2.2.>.>.-.N > > > > > C u 7 K I q l Z 1 > > > > > ' ;.>.;.2.2.",
"2.2.2.>.>.;.` > & z > > l l l h k 8 l > > > > > > z  .>.>.X.2.2.",
"2.2.2.X.>.>.+.z > O > > > > u s g u > > > > > > > M @.>.>.H 2.2.",
"2.2.2.H >.>.*.( > > > > > > & Z f 4 > & z > > > 2 | >.>.;.2.2.2.",
"2.2.2.2.@.>.>.@.M z > > > > 1 ; i 4 > > > > > l ( ;.>.>./ 2.2.2.",
"2.2.2.2.L >.>.>.| c > > > > > 1 1 1 & > > > > M @.>.>.*.2.2.2.2.",
"2.2.2.2.2./ >.>.$.& & > > > > > > > > > > O & p %.>.>.L 2.2.2.2.",
"2.2.2.2.2.2.X.-.R - - * % & > > > & > < * * - - } ;.U 2.2.2.2.2.",
"2.2.2.2.2.2.2._ h - = = = * * * * * ; $ $ = = = T J 2.2.2.2.2.2.",
"2.2.2.2.2.2.2.2.< - - - = = = = $ = = = - = - * : 2.2.2.2.2.2.2.",
"2.2.2.2.2.2.2.2.2.2.% ; = = = = = = = = - * + 2.2.2.2.2.2.2.2.2.",
"2.2.2.2.2.2.2.2.2.2.2.2.O < 3 ; ; * 4 %   2.2.2.2.2.2.2.2.2.2.2.",
"2.2.2.2.2.2.2.2.2.2.2.2.2.2.2.2.2.2.2.2.2.2.2.2.2.2.2.2.2.2.2.2.",
"2.2.2.2.2.2.2.2.2.2.2.2.2.2.2.2.2.2.2.2.2.2.2.2.2.2.2.2.2.2.2.2.",
"2.2.2.2.2.2.2.2.2.2.2.2.2.2.2.2.2.2.2.2.2.2.2.2.2.2.2.2.2.2.2.2."
};
