/* XPM */
static char *bitcoin64[] = {
/* columns rows colors chars-per-pixel */
"64 64 181 2 ",
"   c #241E3F",
".  c #322A37",
"X  c #392F3E",
"o  c #332C39",
"O  c #292047",
"+  c #2C234B",
"@  c #3C3143",
"#  c #3F344E",
"$  c #2E2652",
"%  c #312755",
"&  c #322855",
"*  c #342A5C",
"=  c #3B2F5F",
"-  c #3E3554",
";  c #3F3853",
":  c #3C325C",
">  c #372C63",
",  c #392E66",
"<  c #3C3161",
"1  c #41364D",
"2  c #423D4C",
"3  c #4B3E4E",
"4  c #543F4F",
"5  c #413651",
"6  c #483655",
"7  c #433D52",
"8  c #4C3E52",
"9  c #42355C",
"0  c #45395A",
"q  c #493D5B",
"w  c #533E51",
"e  c #5A3F52",
"r  c #5C395F",
"t  c #563C5A",
"y  c #6E3F56",
"u  c #663A58",
"i  c #7E3E58",
"p  c #432F65",
"a  c #433262",
"s  c #4C3166",
"d  c #443A62",
"f  c #44376C",
"g  c #4A3268",
"h  c #443868",
"j  c #553367",
"k  c #503368",
"l  c #5A3468",
"z  c #473776",
"x  c #45327B",
"c  c #563375",
"v  c #613766",
"b  c #653769",
"n  c #6B3768",
"m  c #6E396A",
"M  c #723A6B",
"N  c #7C3C6D",
"B  c #613478",
"V  c #663373",
"C  c #4E404F",
"Z  c #50404F",
"A  c #464151",
"S  c #4C4051",
"D  c #484059",
"F  c #554153",
"G  c #5D4153",
"H  c #644155",
"J  c #6B4256",
"K  c #634956",
"L  c #6C4259",
"P  c #6E4A5C",
"I  c #704157",
"U  c #74425A",
"Y  c #7B435B",
"T  c #714A5D",
"R  c #7A4D5A",
"E  c #4D4364",
"W  c #4E426C",
"Q  c #53456D",
"!  c #514464",
"~  c #4F4174",
"^  c #52427B",
"/  c #764A60",
"(  c #7D4A61",
")  c #88334C",
"_  c #8F3651",
"`  c #823E59",
"'  c #8C3D5A",
"]  c #923651",
"[  c #983754",
"{  c #963855",
"}  c #9D3D5A",
"|  c #A6355D",
" . c #AC365C",
".. c #A43C5C",
"X. c #A93F5E",
"o. c #B1355C",
"O. c #8C3C65",
"+. c #833D6B",
"@. c #883D6C",
"#. c #903662",
"$. c #9C3461",
"%. c #AF3F62",
"&. c #A33460",
"*. c #BE3C64",
"=. c #C33D67",
"-. c #C33E68",
";. c #CC3F6C",
":. c #84435D",
">. c #8C435E",
",. c #80495E",
"<. c #90465F",
"1. c #9C4159",
"2. c #934C5F",
"3. c #8C4662",
"4. c #834963",
"5. c #8C4B64",
"6. c #964562",
"7. c #9D4364",
"8. c #924863",
"9. c #984963",
"0. c #91426B",
"q. c #9C436C",
"w. c #964C68",
"e. c #9D4C68",
"r. c #8B5160",
"t. c #9C5164",
"y. c #854874",
"u. c #8A487C",
"i. c #9E4370",
"p. c #A44466",
"a. c #AC4464",
"s. c #A74862",
"d. c #AD4A66",
"f. c #A6436F",
"g. c #AB436E",
"h. c #A6496A",
"j. c #AD4B6C",
"k. c #B44466",
"l. c #B84367",
"z. c #B5426A",
"x. c #BC436A",
"c. c #B54B6D",
"v. c #BB4A6E",
"b. c #AC5168",
"n. c #B4526E",
"m. c #BB516E",
"M. c #A44470",
"N. c #B34772",
"B. c #BA4771",
"V. c #BC4D73",
"C. c #C2456C",
"Z. c #CE416D",
"A. c #C54A6E",
"S. c #C94A6F",
"D. c #D0426E",
"F. c #C44C72",
"G. c #CC4C73",
"H. c #D14471",
"J. c #D34D76",
"K. c #C35172",
"L. c #CA5172",
"P. c #C65178",
"I. c #C95179",
"U. c #D7517C",
"Y. c #D8527D",
"T. c #473481",
"R. c #4A3684",
"E. c #554384",
"W. c #594583",
"Q. c #564389",
"!. c #5F498B",
"~. c #594294",
"^. c #684A8F",
"/. c #634B94",
"(. c #60479A",
"). c #654B9D",
"_. c #6C4B9C",
"`. c #6A4A92",
"'. c #964788",
"]. c #A14583",
"[. c None",
/* pixels */
"[.[.[.[.[.[.[.[.[.[.[.[.[.[.[.[.[.[.[.[.[.[.[.[.[.[.[.[.[.[.[.[.[.[.[.[.[.[.[.[.[.[.[.[.[.[.[.[.[.[.[.[.[.[.[.[.[.[.[.[.[.[.[.[.",
"[.[.[.[.[.[.[.[.[.[.[.[.[.[.[.[.[.[.[.[.[.[.[.[.[.[.[.[.[.[.[.[.[.[.[.[.[.[.[.[.[.[.[.[.[.[.[.[.[.[.[.[.[.[.[.[.[.[.[.[.[.[.[.[.",
"[.[.[.[.[.[.[.[.[.[.[.[.[.[.[.[.[.[.[.[.[.[.[.[.[.[.[.[.[.[.[.[.[.[.[.[.[.[.[.[.[.[.[.[.[.[.[.[.[.[.[.[.[.[.[.[.[.[.[.[.[.[.[.[.",
"[.[.[.[.[.[.[.[.[.[.[.[.[.[.[.[.[.[.[.[.[.[.[.[.[.[.[.[.[.[.[.[.[.[.[.[.[.[.[.[.[.[.[.[.[.[.[.[.[.[.[.[.[.[.[.[.[.[.[.[.[.[.[.[.",
"[.[.[.[.[.[.[.[.[.[.[.[.[.[.[.[.[.[.[.[.[.[.[.[.[.[.[.[.[.[.[.[.O + [.[.[.[.[.[.[.[.[.[.[.[.[.[.[.[.[.[.[.[.[.[.[.[.[.[.[.[.[.[.",
"[.[.[.[.[.[.[.[.[.[.[.[.[.[.[.[.[.[.[.[.[.[.[.[.[.O * , , < , , , , , , , , > $ [.[.[.[.[.[.[.[.[.[.[.[.[.[.[.[.[.[.[.[.[.[.[.[.",
"[.[.[.[.[.[.[.[.[.[.[.[.[.[.[.[.[.[.[.[.[.[.+ > , , , , , , , , , , , , , , , , , , $ [.[.[.[.[.[.[.[.[.[.[.[.[.[.[.[.[.[.[.[.[.",
"[.[.[.[.[.[.[.[.[.[.[.[.[.[.[.[.[.[.[.[.& , , z , , , , , , , , , , , , , , , , , , , , > [.[.[.[.[.[.[.[.[.[.[.[.[.[.[.[.[.[.[.",
"[.[.[.[.[.[.[.[.[.[.[.[.[.[.[.[.[.[.* , , , , , , , , , , , < , , , , , , , , , , , , , , , * [.[.[.[.[.[.[.[.[.[.[.[.[.[.[.[.[.",
"[.[.[.[.[.[.[.[.[.[.[.[.[.[.[.[.% , , , , , , , , , , , , , , , , , , , < , , , , , , , , > > > & [.[.[.[.[.[.[.[.[.[.[.[.[.[.[.",
"[.[.[.[.[.[.[.[.[.[.[.[.[.[.[.* , , , , , , , , , , < < < < ; : : : h < < , = , , , , , > , , , , * [.[.[.[.[.[.[.[.[.[.[.[.[.[.",
"[.[.[.[.[.[.[.[.[.[.[.[.[.[.* , , , , , , , , , , < : ; ; ; # # # 2 1 7 # # : : > , , , , , , , , > * [.[.[.[.[.[.[.[.[.[.[.[.[.",
"[.[.[.[.[.[.[.[.[.[.[.[.[.* , , , , , f , , = : 9 1 2 2 2 2 2 2 A # 2 2 2 2 2 2 - : = > > , > , , , > > $ [.[.[.[.[.[.[.[.[.[.[.",
"[.[.[.[.[.[.[.[.[.[.[.[.= , , , , , , , , : # 1 2 2 2 2 2 2 2 2 A A 2 2 2 2 2 2 A # 1 - , > , > , , > > * $ [.[.[.[.[.[.[.[.[.[.",
"[.[.[.[.[.[.[.[.[.[.[.O.l , , , , < , = - 1 2 2 2 2 4 J 3 u 3 2 C I J J e 3 J J G 3 2 2 5 a > > , , > , , * [.[.[.[.[.[.[.[.[.[.",
"[.[.[.[.[.[.[.[.[.[.z.F.N f , , , , = 1 1 2 2 2 2 3 U :.H U J 2 Z >.J Y I 3 Y 1.H 2 2 2 2 1 9 > > , > > , g O.[.[.[.[.[.[.[.[.[.",
"[.[.[.[.[.[.[.[.[...G.J.i.g , , , < 1 2 2 2 2 2 2 J J e :.u >.e u :.G :.>.3 Z :.2 2 2 2 2 2 3 9 > > , > , m B.l.[.[.[.[.[.[.[.[.",
"[.[.[.[.[.[.[.[.[.C.J.J.V.M , , 9 1 2 2 2 2 2 2 2 G 3 2 H G e y Z Y I U I 2 4 I 2 2 2 2 2 2 2 2 , > > , a i.G.G...[.[.[.[.[.[.[.",
"[.[.[.[.[.[.[.[.a.J.J.J.G.i.k < 5 2 2 2 2 2 2 2 2 7 2 2 2 2 2 3 C Z F F 3 2 2 3 2 2 2 2 2 2 2 2 1 9 > > M V.J.J.x.[.[.[.[.[.[.[.",
"[.[.[.[.[.[.[.[.F.J.J.J.J.F.+.6 1 2 2 2 2 2 2 2 2 2 2 2 A F T 4.4.Y L F 2 2 2 2 2 2 2 2 2 2 2 2 3 8 a l M.J.J.J.J...[.[.[.[.[.[.",
"[.[.[.[.[.[.[.%.J.J.J.J.J.J.p.4 2 2 2 2 2 2 2 2 2 2 2 w 3.j.V.I.I.P.V.h.4.w # 2 2 2 2 2 2 2 2 2 2 3 F 0.F.J.J.J.J.A.[.[.[.[.[.[.",
"[.[.[.[.[.[.[.F.J.J.J.U.J.F.>.Z 2 2 2 2 2 2 2 2 2 2 J p.C.H.J.U.Y.Y.J.H.x.7.G 2 2 2 2 2 2 2 2 2 2 3 I c.J.J.J.J.J.J.] [.[.[.[.[.",
"[.[.[.[.[.[.] J.J.J.J.J.J.c.I C 2 2 2 2 2 2 2 2 7 H a.Z.;.H.D.J.U.J.D.D.Z.Z.p.e 2 2 2 2 2 2 2 2 2 2 H d.J.J.J.J.J.J.k.[.[.[.[.[.",
"[.[.[.[.[.[.k.J.J.J.J.J.L.9.Z 2 2 2 2 2 2 2 2 2 w a.;.;.D.;.Z.H.H.D.D.Z.Z.Z.;.1.3 2 2 2 2 2 2 2 2 2 Z 2.L.J.J.J.J.J.J.[.[.[.[.[.",
"[.[.[.[.[.[.G.J.J.J.U.J.v.R C 2 2 2 2 2 2 2 2 ; :.C.Z.D.Z.Z.D.;.-.Z.Z.Z.Z.H.;.x.U 2 2 2 2 2 2 2 2 A 2 R m.J.J.J.J.J.J.) [.[.[.[.",
"[.[.[.[.[.[.J.J.J.J.J.J.c.K 2 2 2 2 2 2 2 2 2 C a.l.p.p.p.x.;.=.=.-.Z.x.p.p.a.C.7.2 2 2 2 2 2 2 2 A @ K b.G.J.J.J.J.J.&.[.[.[.[.",
"[.[.[.[.[._ J.J.J.U.J.L.t.G 2 2 2 2 2 2 2 2 2 H l.z.H 4 F J *.=.*.*.%.e 4 w u C.z.e 2 2 2 2 2 2 2 2 A C t.J.J.J.J.J.J.C.[.[.[.[.",
"[.[.[.[.[...J.J.J.J.J.F.,.C 2 A 2 2 2 2 2 2 2 U *.Z.:.3 2 2 U *.*.*.J 2 2 8 6.Z.z.H 2 2 2 2 2 2 2 2 # A r.L.G.U.J.J.J.J.[.[.[.[.",
"[.[.[.[.[.l.U.J.J.J.G.K.( A A # 2 2 2 2 2 2 2 T N.;.p.C 2 2 2 >.*.:.2 2 2 w z.Z.j.K 2 2 2 2 2 2 2 2 2 2 R m.U.J.J.J.J.J.[.[.[.[.",
"[.[.[.[.[.A.J.J.J.J.U.V./ 2 ; 2 2 2 A A 2 2 2 Q `.].q.w 2 2 2 C :.2 2 2 2 w f.'.^.! 2 2 2 2 2 2 2 2 2 2 P V.J.J.J.J.J.J.[.[.[.[.",
"[.[.[.[.[.G.J.J.J.J.J.V.P 2 2 2 2 2 2 @ 2 2 2 ! /._.y.8 2 2 2 2 2 2 2 2 2 S u.)./.! 2 2 2 2 2 2 2 2 2 2 K n.J.J.J.J.J.J.[.[.[.[.",
"[.[.[.[.[.G.J.J.J.J.J.m.P 2 2 2 2 2 # A 2 2 2 ! ).).^ S 2 A 2 2 2 2 S 2 2 7 ^.).!.D 2 2 2 2 2 2 2 2 2 2 G V.J.J.J.J.J.J.[.[.[.[.",
"[.[.[.[.[.S.J.J.J.J.J.V.P 2 2 A 2 2 2 2 2 2 2 W ).~.^ A 2 G ` 1 2 2 ' A 2 7 Q.).!.! 2 2 2 2 2 2 2 2 2 2 K c.J.J.J.J.J.J.[.[.[.[.",
"[.[.[.[.[.v.J.J.J.J.J.K.R 2 2 ; 2 2 2 2 2 2 2 A Q.~.^ 7 2 F o.y 2 ` | A 2 A E.~.E.A 2 2 2 2 2 2 2 2 2 2 K n.J.J.J.J.J.J.[.[.[.[.",
"[.[.[.[.[.X.J.J.J.J.J.P.4.2 2 2 2 2 2 2 2 2 2 2 E Q.^ 7 2 F X.X.i o.| S 2 7 E.Q.D 2 2 2 2 2 2 2 2 2 2 2 T v.J.J.J.J.J.H.[.[.[.[.",
"[.[.[.[.[.] J.J.J.J.J.L.w.A 2 2 2 2 2 2 2 2 2 2 A ~ ^ A 2 S $.o.o.o.#.2 2 7 E.W 2 2 2 2 2 2 2 2 2 2 2 2 ,.A.J.J.J.J.J.G.[.[.[.[.",
"[.[.[.[.[.[.J.J.J.J.J.J.h.F 2 2 2 2 2 2 2 2 2 2 # A E A 2 A z &.o.} z 2 2 7 ~ A 2 2 2 2 2 2 2 2 2 2 # A 2.L.J.J.J.J.J.a.[.[.[.[.",
"[.[.[.[.[.[.J.J.J.U.J.J.v.L 2 2 2 2 2 2 2 2 2 2 A 2 A # 2 A T.V &.V z 2 2 2 A 2 2 2 2 2 2 2 2 2 2 2 A C h.J.J.J.J.J.J._ [.[.[.[.",
"[.[.[.[.[.[.v.L.J.J.J.J.G.3.C 2 2 2 2 2 2 2 2 2 2 2 2 2 2 ; , T.B x z # 2 2 # A 2 2 A 2 2 2 2 2 2 2 2 L c.J.J.J.J.J.H.[.[.[.[.[.",
"[.[.[.[.[.[.[ U.J.J.J.J.J.j.G 1 2 2 2 2 2 2 2 2 2 2 2 2 A ; R.R.R.T.z 2 2 2 2 2 2 A # 2 2 2 2 2 2 2 A 8.G.H.J.J.J.H.A.[.[.[.[.[.",
"[.[.[.[.[.[.[.G.J.J.U.J.J.F.3.3 2 2 2 2 2 2 2 2 2 2 2 2 2 7 T.R.R.R.x 7 2 2 2 2 2 2 2 2 2 2 2 2 2 C I C.J.J.J.J.J.J.[ [.[.[.[.[.",
"[.[.[.[.[.[.[.k.J.J.J.J.J.J.c.T 2 2 2 2 2 2 2 2 2 2 2 2 2 7 R.R.T.T.z 2 2 2 2 2 2 2 2 2 2 2 2 2 2 Z s.L.J.J.D.J.J.S.[.[.[.[.[.[.",
"[.[.[.[.[.[.[.[.G.J.J.J.J.J.J.h.F A # 2 2 2 2 2 2 2 2 2 2 2 d , x x d 2 2 2 2 2 2 2 2 2 2 2 2 2 C :.L.J.J.J.J.J.J.X.[.[.[.[.[.[.",
"[.[.[.[.[.[.[.[.l.J.J.J.J.J.J.L.w.F A 2 2 2 2 2 2 2 2 2 2 2 A f x f 2 2 2 2 2 2 2 2 2 2 2 2 2 8 Y v.D.J.J.J.J.J.S.[.[.[.[.[.[.[.",
"[.[.[.[.[.[.[.[.[.F.J.J.J.J.U.J.F.8.F 2 2 2 2 2 2 2 2 2 2 2 2 ; f 7 2 2 2 2 2 2 2 2 2 2 2 2 2 U c.J.J.J.J.J.H.L.X.[.[.[.[.[.[.[.",
"[.[.[.[.[.[.[.[.[.k.J.J.J.J.J.J.J.V.L 7 2 2 2 2 2 2 2 2 2 2 2 2 A # 2 2 2 2 2 2 2 2 2 2 2 2 t q.J.J.J.J.J.J.J.C.[.[.[.[.[.[.[.[.",
"[.[.[.[.[.[.[.[.[.[.v.G.J.J.J.J.J.N.l : 2 # 2 2 2 2 2 2 2 2 2 2 2 2 2 2 2 2 2 2 2 2 2 2 ; : < ( S.J.J.J.J.J.F.} [.[.[.[.[.[.[.[.",
"[.[.[.[.[.[.[.[.[.[.1.A.U.J.J.J.G.@.< > : ; 2 2 2 2 2 2 2 2 2 2 2 2 2 2 2 2 2 2 2 2 2 ; - * > j d.J.J.D.J.J.k.[.[.[.[.[.[.[.[.[.",
"[.[.[.[.[.[.[.[.[.[.[.a.F.J.J.J.N.b > > , , : ; # 2 A 2 2 2 2 2 2 2 2 A 2 2 2 2 1 - = * > > > p O.F.J.J.J.k.[.[.[.[.[.[.[.[.[.[.",
"[.[.[.[.[.[.[.[.[.[.[.[.d.G.J.J.q.s , > > > > , : : ; ; 2 2 2 2 2 2 2 # 2 1 - - : = = > > > > > n B.J.J.l.[.[.[.[.[.[.[.[.[.[.[.",
"[.[.[.[.[.[.[.[.[.[.[.[.[.d.L.J.+., > > , , > > > > : : : ; ; ; ; ; ; : : : = > > > > > > > > > j f.J.k.[.[.[.[.[.[.[.[.[.[.[.[.",
"[.[.[.[.[.[.[.[.[.[.[.[.[.[.s.c.M > , , > > > > > > > > > > > : = = = > > > > > > > > > > > > > p 0.s.[.[.[.[.[.[.[.[.[.[.[.[.[.",
"[.[.[.[.[.[.[.[.[.[.[.[.[.[.[.:.r , > , > > > > > > > > > > > > > > > > > > > > > > > > > > > > 9 u [.[.[.[.[.[.[.[.[.[.[.[.[.[.",
"[.[.[.[.[.[.[.[.[.[.[.[.[.[.[.[.[.0 < < > > > > > > > > > > > > > > > > > > > > > > > > > > , - 1 [.[.[.[.[.[.[.[.[.[.[.[.[.[.[.",
"[.[.[.[.[.[.[.[.[.[.[.[.[.[.[.[.[.[.2 0 < > , > > > > > > > > > > > > > > > > > > > > > , 9 5 [.[.[.[.[.[.[.[.[.[.[.[.[.[.[.[.[.",
"[.[.[.[.[.[.[.[.[.[.[.[.[.[.[.[.[.[.[.[.# q < , > > > > < > > > > > > > > > > > > > = 9 1 [.[.[.[.[.[.[.[.[.[.[.[.[.[.[.[.[.[.[.",
"[.[.[.[.[.[.[.[.[.[.[.[.[.[.[.[.[.[.[.[.[.[.@ 8 0 9 , , > , > , > > , > > , , : 0 7 @ [.[.[.[.[.[.[.[.[.[.[.[.[.[.[.[.[.[.[.[.[.",
"[.[.[.[.[.[.[.[.[.[.[.[.[.[.[.[.[.[.[.[.[.[.[.[.[.X 2 S q 0 9 9 : : 0 0 0 7 2 @ [.[.[.[.[.[.[.[.[.[.[.[.[.[.[.[.[.[.[.[.[.[.[.[.",
"[.[.[.[.[.[.[.[.[.[.[.[.[.[.[.[.[.[.[.[.[.[.[.[.[.[.[.[.[.[.[.. o o [.[.[.[.[.[.[.[.[.[.[.[.[.[.[.[.[.[.[.[.[.[.[.[.[.[.[.[.[.[.",
"[.[.[.[.[.[.[.[.[.[.[.[.[.[.[.[.[.[.[.[.[.[.[.[.[.[.[.[.[.[.[.[.[.[.[.[.[.[.[.[.[.[.[.[.[.[.[.[.[.[.[.[.[.[.[.[.[.[.[.[.[.[.[.[.",
"[.[.[.[.[.[.[.[.[.[.[.[.[.[.[.[.[.[.[.[.[.[.[.[.[.[.[.[.[.[.[.[.[.[.[.[.[.[.[.[.[.[.[.[.[.[.[.[.[.[.[.[.[.[.[.[.[.[.[.[.[.[.[.[.",
"[.[.[.[.[.[.[.[.[.[.[.[.[.[.[.[.[.[.[.[.[.[.[.[.[.[.[.[.[.[.[.[.[.[.[.[.[.[.[.[.[.[.[.[.[.[.[.[.[.[.[.[.[.[.[.[.[.[.[.[.[.[.[.[.",
"[.[.[.[.[.[.[.[.[.[.[.[.[.[.[.[.[.[.[.[.[.[.[.[.[.[.[.[.[.[.[.[.[.[.[.[.[.[.[.[.[.[.[.[.[.[.[.[.[.[.[.[.[.[.[.[.[.[.[.[.[.[.[.[.",
"[.[.[.[.[.[.[.[.[.[.[.[.[.[.[.[.[.[.[.[.[.[.[.[.[.[.[.[.[.[.[.[.[.[.[.[.[.[.[.[.[.[.[.[.[.[.[.[.[.[.[.[.[.[.[.[.[.[.[.[.[.[.[.[."
};
